<svg xmlns="http://www.w3.org/2000/svg" viewBox="0 0 128 128" role="img" aria-labelledby="title desc">
  <title id="title">Seedora logo</title>
  <desc id="desc">A premium green seed mark with a flowing S and gold leaf.</desc>
  <rect width="128" height="128" rx="26" fill="#FFFDF7"/>
  <path
    d="M67.6 14.2c21.8 13.5 37.8 35.6 38.7 57.6.8 21.1-13.5 39.4-34.5 42.2-20.8 2.8-43.4-10.3-49.9-30.8-6.5-20.6 3-48.9 22.4-62.7 7.2-5.1 15.6-7.6 23.3-6.3Z"
    fill="#246B45"
  />
  <path
    d="M75.3 34.8c-7.6-4.5-19.9-3.1-25.8 4.3-5.9 7.3-2.7 16.7 6.6 20.8l14.8 6.5c6.6 2.9 8 7.4 4.6 11.3-4.4 5.1-15.4 5.3-24.4-.4"
    fill="none"
    stroke="#FFFDF7"
    stroke-width="11"
    stroke-linecap="round"
  />
  <path
    d="M86.9 24.3c9.2-2 16.9 1.3 22.2 9.3-8.5 2.5-16.5.1-22.2-9.3Z"
    fill="#D69B33"
  />
  <circle cx="86.5" cy="88.2" r="6.6" fill="#D69B33"/>
</svg>
